<svg xmlns="http://www.w3.org/2000/svg" width="256" height="256" viewBox="0 0 100 100"><rect width="100" height="100" rx="20" fill="#e1d5ff"></rect><path d="M29.94 48.20L29.94 60.40L27.22 60.40L27.22 48.76Q27.22 45.08 26.14 43.38Q25.06 41.68 22.74 41.68L22.74 41.68Q21.14 41.68 19.58 42.46Q18.02 43.24 16.84 44.58Q15.66 45.92 15.14 47.64L15.14 47.64L15.14 60.40L12.42 60.40L12.42 39.56L14.90 39.56L14.90 44.28Q15.74 42.76 17.10 41.62Q18.46 40.48 20.18 39.84Q21.90 39.20 23.74 39.20L23.74 39.20Q25.46 39.20 26.66 39.84Q27.86 40.48 28.58 41.66Q29.30 42.84 29.62 44.50Q29.94 46.16 29.94 48.20L29.94 48.20ZM44.74 60.80L44.74 60.80Q42.50 60.80 40.58 59.94Q38.66 59.08 37.26 57.58Q35.86 56.08 35.08 54.12Q34.30 52.16 34.30 49.92L34.30 49.92Q34.30 47 35.64 44.56Q36.98 42.12 39.34 40.66Q41.70 39.20 44.70 39.20L44.70 39.20Q47.78 39.20 50.08 40.68Q52.38 42.16 53.70 44.58Q55.02 47 55.02 49.88L55.02 49.88Q55.02 50.20 55.02 50.50Q55.02 50.80 54.98 50.96L54.98 50.96L37.14 50.96Q37.34 53.20 38.40 54.94Q39.46 56.68 41.16 57.70Q42.86 58.72 44.86 58.72L44.86 58.72Q46.90 58.72 48.72 57.68Q50.54 56.64 51.26 54.96L51.26 54.96L53.62 55.60Q52.98 57.08 51.66 58.28Q50.34 59.48 48.56 60.14Q46.78 60.80 44.74 60.80ZM37.06 49L37.06 49L52.46 49Q52.30 46.72 51.24 45Q50.18 43.28 48.48 42.30Q46.78 41.32 44.74 41.32L44.74 41.32Q42.70 41.32 41.02 42.30Q39.34 43.28 38.28 45.02Q37.22 46.76 37.06 49ZM77.34 57.60L84.90 39.56L87.58 39.56L78.62 60.40L76.26 60.40L71.90 50.04L67.58 60.40L65.22 60.40L56.26 39.56L58.90 39.56L66.50 57.60L70.34 48.20L66.82 39.60L69.26 39.60L71.90 46.36L74.58 39.60L76.98 39.60L73.50 48.20L77.34 57.60Z" fill="#000000"></path></svg>