<svg version="1.2" xmlns="http://www.w3.org/2000/svg" viewBox="0 0 900 900" width="900" height="900">
	<title>glitch-svg</title>
	<style>
		.s0 { fill: #d0fef1 } 
		.s1 { fill: #2800ff } 
		.s2 { fill: #5a78ff } 
		.s3 { fill: #fec1ee } 
		.s4 { fill: #ff7698 } 
		.s5 { fill: #ffffff } 
		.s6 { fill: #000000 } 
	</style>
	<path id="Shape 1" class="s0" d="m0 0h900v900h-900z"/>
	<path id="Layer" class="s1" d="m377.5 452.7v-19.7h244.3v3.8c-31.3 10.2-77.6 19.8-89.5 21.7 6.5 3 8.6 5.7 11.3 6.6q3.6 0.4 7.2 0.9 3.6 0.6 7.1 1.2 3.6 0.7 7.1 1.4 3.5 0.8 7 1.7c18.4 4.2 33.7 8.2 46.2 12.6 13 4.9 19.9 7.2 27.6 9.4q3.3 0.9 6.7 1.7 3.4 0.9 6.8 1.6 3.4 0.7 6.8 1.4 3.5 0.7 6.9 1.2c7.5 1.1 23.6-4.4 27.4-5.4 3.8-1 52.7-20 52.7-20 0 0 21.2-7.9 29.6-10 7.7-2.2 7.9 0.4 7.9 0.4q0.3 0.9 0.5 1.7 0.2 0.8 0.4 1.7 0.2 0.9 0.4 1.7 0.2 0.9 0.4 1.7 0.2 2.8 0.4 5.5 0.2 2.7 0.2 5.5 0 2.7-0.1 5.5-0.1 2.7-0.3 5.4-0.4 2.1-0.7 4.2-0.4 2.1-0.8 4.2-0.4 2.1-0.9 4.2-0.5 2-1 4.1-0.5 1.7-1 3.4-0.6 1.6-1.2 3.3-0.7 1.6-1.4 3.3-0.7 1.6-1.5 3.2c-1.5 2.7-4 7-4.8 8.8q-0.5 1-0.9 2-0.3 0.9-0.7 2-0.3 1-0.5 2-0.2 1.1-0.3 2.2-0.2 1.4-0.2 2.8 0 1.5 0 2.9 0.1 1.5 0.3 2.9 0.2 1.4 0.4 2.8c0.7 3.3 2.9 11.4 2.9 11.4l2.5 10.2-350.1-0.5v20.6h-283.5q0-0.2 0.1-0.4 0-0.2 0-0.4 0-0.2 0-0.3 0-0.2 0-0.4c-0.3-1.3-1.8-3.1-7.2-6.4-7.1-4.6-29.3-12.6-35.8-15-0.2-6.1-2.9-34.2 32.2-65.1q4-3.4 8-6.6 4.1-3.3 8.2-6.4 4.2-3.1 8.4-6.1 4.2-3 8.6-5.8c2.9-1.9 30.1-19.8 54.1-27.6"/>
	<path id="Layer" class="s2" d="m782.7 571.8l-350.1-0.5v20.6h-283.5c-1.6 4.6-22.9 12.8-37.4 15.6 7.8 10.8 22.6 20.6 37.4 29q5.3 3 10.8 5.7 5.4 2.7 11 5.2 5.5 2.6 11.2 4.9 5.6 2.3 11.3 4.5c5.6 1.9 22.3 8.4 32.2 9.2q5.2 0.4 10.3 0.5 5.2 0.1 10.4 0 5.2-0.1 10.4-0.4 5.1-0.3 10.3-0.9 2.7-0.3 5.4-0.6 2.8-0.3 5.5-0.8 2.7-0.4 5.4-0.9 2.7-0.5 5.3-1c1.8-0.4 1.4 5.4 10.1 17.4 6.3 8.4 13.9 16.9 21.6 21.9 9.1 5.8 12.2 8.8 32 12.4q5.5 1.1 11.1 1.8 5.5 0.6 11.1 0.9 5.6 0.2 11.3 0.1 5.6-0.1 11.2-0.7c10-0.9 19.7-1.2 28.4-3.6 0.4-11.1-1-21.4-5.5-30.4 12.1 0.4 18.7 0.8 35.5 0.5 32.4-0.7 67.8-7.3 96.8-12.9 23.9-4.5 63.1-15.5 81.9-21.7 10.7-3.6 36.3-12.3 38.7-12.3 3.9 0 9.7 0.9 17.7 3.3 12 3.5 21.2 6.7 41.3 13.9 20.2 7.3 38.2 13.6 49.1 15.1 8.1 1.1 9.1 0 9.6-4.1 0.9-5.1-6.2-16.7-9.1-25.9q-1.4-3.4-2.2-7-0.9-3.6-1.1-7.3-0.3-3.7 0-7.4 0.3-3.7 1.2-7.3 0.2-1.1 0.6-2.1 0.3-1.1 0.6-2.1 0.4-1.1 0.7-2.1 0.4-1 0.8-2.1 0.7-2.1 1.3-4.2 0.5-2.2 0.8-4.3 0.3-2.2 0.4-4.4 0.1-2.2 0-4.4-0.1-1.4-0.2-2.9-0.2-1.4-0.4-2.7-0.2-1.4-0.6-2.8-0.3-1.4-0.6-2.7z"/>
	<path id="Layer" class="s3" d="m778.1 404q0-1.4 0-2.9 0.1-1.4 0.3-2.8 0.2-1.5 0.5-2.9 0.3-1.4 0.7-2.8c0.6-2.2 1.4-4.2 2.7-8q0.7-2.1 1.2-4.3 0.5-2.2 0.7-4.4 0.3-2.3 0.3-4.5 0.1-2.3-0.1-4.5-0.2-1.4-0.3-2.7-0.2-1.3-0.4-2.7-0.3-1.3-0.5-2.6-0.3-1.3-0.6-2.6l-256.7-0.5v20h-376.6c0.7 5.5-22.9 14.3-37.5 17.1 7.6 10.5 22.9 20.8 37.8 29.3q5.4 2.9 10.8 5.6 5.5 2.7 11.1 5.3 5.5 2.5 11.2 4.8 5.6 2.4 11.3 4.5c6.7 2.4 21.4 7.8 31.8 9l151.7 1.3v-19.7h244.3v3.8c3.6-1 9.1-2.6 12.6-3.8 10.8-3.6 36.8-12.5 39.2-12.6 3.9 0 8.8 0.9 16.8 3.3 12 3.5 21.5 7 41.7 14.2 20.2 7.2 37.7 13.4 48.6 15 9.4 1.4 10-1.7 10-5.4 0.2-4.8-6.9-16.9-9.8-26q-0.7-2.1-1.2-4.3-0.5-2.2-0.9-4.4-0.3-2.1-0.5-4.4-0.2-2.2-0.2-4.4z"/>
	<path id="Layer" class="s4" d="m792.3 255.6c0.2 3.7 0.7 18.5 0.2 21.9q-0.3 1.9-0.7 3.9-0.3 1.9-0.7 3.8-0.4 1.9-0.8 3.8-0.5 1.9-1 3.8c-1.4 4.6-3.6 11.2-5.3 14.2-1.6 2.7-4.1 6.9-5 8.8q-0.4 1-0.8 2-0.4 1.1-0.7 2.2-0.3 1.1-0.5 2.2-0.2 1.1-0.3 2.2-0.1 1.4-0.2 2.8 0 1.5 0.1 2.9 0 1.5 0.2 2.9 0.2 1.4 0.5 2.9c0.6 3.2 2.8 11.3 2.8 11.3l2.5 9.1-256.7-0.5v20h-376.6c0 0 0.3-2.2-6.5-6.5-6.2-3.3-26.2-11.8-36.3-14.9-1-5.1-3.2-34 31.9-64.9q4-3.4 8-6.6 4.1-3.3 8.2-6.4 4.2-3.1 8.4-6.1 4.3-3 8.6-5.8c2.9-1.9 29.1-20.7 60.4-30q2.8-0.8 5.7-1.5 2.9-0.6 5.7-1.2 2.9-0.6 5.8-1.1 2.9-0.5 5.8-0.9c22.2-1.8 57.8-2.6 61.3-2.5q2.6-3.5 5.3-6.9 2.8-3.4 5.6-6.7 2.8-3.3 5.8-6.5 3-3.2 6-6.3c13.3-13 20.8-18.1 28.7-19 11 0.7 69.6 14.4 86.1 19.3 9.5 2.7 28.5 7.8 43.6 14.1 15.5 6 19.3 11.1 19.3 11.1q1.1 1.6 2.2 3.2 1.1 1.6 2.3 3.2 1.2 1.6 2.4 3.2 1.2 1.5 2.5 3c3.7 3.7 14.2 10 17.1 11.2 4.4 1.1 11.9 1.2 28.8 5.2 17.6 4.2 33.5 8.7 46.1 12.7 13.1 4.3 19.9 7.3 27.7 9.3 7.8 2.1 20.3 5.1 27.3 6.1 6.9 1 22.1-4.5 25.9-5.5 3.8-0.9 54.1-19.7 54.1-19.7 0 0 27.1-9.7 29.6-10.5 8.2-2.7 9.6-2.8 9.6 7.7z"/>
	<path id="Layer" fill-rule="evenodd" class="s5" d="m257.6 319.4c0 18.2-14.4 33-32 33-17.7 0-33-13.9-32.1-33 0.9-19.3 14.3-32.9 32.1-32.9 17.7 0 32 14.7 32 32.9zm-39.5 26c13.6 0 24.5-11.2 24.5-25.3 0-14.1-11-25.4-24.5-25.4-13.5 0-24.1 12.5-24.6 25.4-0.1 15.6 11 25.3 24.6 25.3z"/>
	<path id="Layer" fill-rule="evenodd" class="s6" d="m242.7 320.2c0 14.1-11.1 25.3-24.6 25.3-13.5 0-24.6-9.7-24.6-25.3 0.4-12.9 11-25.4 24.6-25.4 13.6 0 24.6 11.3 24.6 25.4zm-33.1 16.2q1.5-0.6 2.6-1.8 1.1-1.2 1.7-2.7 0.6-1.5 0.6-3.1c0-3.4-2-6.4-5.1-7.7-3.2-1.2-6.7-0.5-9.1 1.9-2.3 2.4-3 6-1.6 9.1 1.3 3.1 4.4 5 7.8 5 1 0 2.1-0.3 3.1-0.7z"/>
	<path id="Layer" class="s5" d="m206.5 337.1c-4.5 0-8.1-3.7-8.1-8.3 0-4.6 3.6-8.3 8.1-8.3 4.4 0 8 3.7 8 8.3 0 4.6-3.6 8.3-8 8.3z"/>
	<path id="Layer" fill-rule="evenodd" class="s5" d="m257.6 535.6c0 18.2-14.4 33-32 33-17.7 0-33-13.9-32.1-33 0.9-19.3 14.3-32.9 32.1-32.9 17.7 0 32 14.7 32 32.9zm-39.5 26.1c13.6 0 24.5-11.3 24.5-25.4 0-14.1-11-25.3-24.5-25.3-13.5 0-24.1 12.5-24.6 25.3-0.1 15.6 11 25.4 24.6 25.4z"/>
	<path id="Layer" fill-rule="evenodd" class="s6" d="m242.7 536.4c0 14.1-11.1 25.4-24.6 25.4-13.5 0-24.6-9.7-24.6-25.4 0.4-12.8 11-25.3 24.6-25.3 13.6 0 24.6 11.2 24.6 25.3zm-33.1 16.2q1.5-0.6 2.6-1.8 1.1-1.1 1.7-2.7 0.6-1.5 0.6-3.1c0-3.3-2-6.4-5.1-7.6-3.2-1.3-6.7-0.6-9.1 1.9-2.3 2.4-3 6-1.6 9 1.3 3.1 4.4 5.1 7.8 5q1.6 0 3.1-0.7z"/>
	<path id="Layer" class="s5" d="m206.5 553.3c-4.5 0-8.1-3.7-8.1-8.3 0-4.6 3.6-8.2 8.1-8.2 4.4 0 8 3.6 8 8.2 0 4.6-3.6 8.3-8 8.3z"/>
	<path id="Layer" class="s2" d="m356.8 375.8c-4.6 17.2-9.4 31.4-9.5 31.7-0.7 2-0.5 4.1 0.4 6 0.9 1.8 2.5 3.2 4.5 3.9 2 0.7 4.1 0.5 6-0.4 1.8-0.9 3.3-2.5 3.9-4.5 0.4-1.1 5.9-17.5 10.8-36.7z"/>
	<path id="Layer" class="s2" d="m320.8 375.8c-1.5 3.2-2.5 5.2-2.5 5.3-0.8 1.6-0.9 3.4-0.4 5 0.5 1.7 1.7 3.1 3.2 3.9 1.6 0.8 3.4 1 5 0.5 1.7-0.5 3.1-1.6 4-3.1q0.7-1.4 1.4-2.8 0.7-1.5 1.4-2.9 0.6-1.5 1.2-2.9 0.6-1.5 1.2-3z"/>
	<path id="Layer" class="s1" d="m365.1 333c0 0.2-0.1 0.4-0.1 0.7-0.9 12.2-4.5 28.2-8.2 42.1h16.2c3.5-13.5 6.7-28.5 7.6-40.7 2-13.5-6.3-38.8-11.7-53.7q17.5 0.7 35 1.8 17.5 1.2 35 2.7 17.5 1.6 34.9 3.7 17.5 2 34.8 4.5c79.4 11.5 175.2 59.1 176.1 59.6 1.9 0.9 4 1.1 6 0.5 2-0.7 3.7-2.1 4.6-4 1-1.8 1.1-4 0.4-6-0.6-2-2.1-3.6-4-4.5-4-2-98.9-49.2-180.8-61-84.9-12.3-152.8-13.2-153.5-13.2-1.3 0-2.6 0.3-3.7 0.9-1.1 0.6-2.1 1.5-2.8 2.5-0.8 1.1-1.2 2.3-1.4 3.6-0.1 1.3 0.1 2.6 0.6 3.8 6.7 16.3 16.7 46 15 56.7z"/>
	<path id="Layer" class="s1" d="m330.1 334.6c1.3 14.9-5.5 32.5-9.3 41.2h14.5c4.3-10.8 9.4-27.3 8.1-42.4q-0.7-7.6-2.3-15-1.7-7.4-4.2-14.6-2.5-7.2-5.9-14-3.3-6.8-7.5-13.2c-1-1.4-2.6-2.4-4.4-2.7-1.7-0.3-3.5 0.2-5 1.2-1.4 1-2.4 2.6-2.7 4.4-0.2 1.7 0.2 3.5 1.2 4.9q3.6 5.7 6.6 11.7 2.9 6 5.1 12.4 2.2 6.3 3.7 12.9 1.4 6.5 2.1 13.2z"/>
	<path id="Layer" class="s3" d="m356.9 591.8c-4.6 17.2-9.4 31.4-9.4 31.7-0.7 2-0.5 4.1 0.4 5.9 0.9 1.9 2.5 3.3 4.5 3.9 1.9 0.7 4.1 0.6 5.9-0.3 1.9-0.9 3.3-2.5 4-4.5 0.4-1.1 5.8-17.5 10.8-36.7z"/>
	<path id="Layer" class="s3" d="m320.9 591.8c-1.4 3.2-2.5 5.2-2.5 5.3-0.8 1.6-1 3.4-0.5 5.1 0.5 1.7 1.7 3.2 3.3 4 1.6 0.8 3.4 1 5.1 0.5 1.7-0.6 3.1-1.7 3.9-3.3q0.8-1.4 1.5-2.8 0.6-1.5 1.3-2.9 0.7-1.5 1.3-2.9 0.6-1.5 1.2-3z"/>
	<path id="Layer" class="s4" d="m365.2 549q0 0.1-0.1 0.2 0 0 0 0.1 0 0.1 0 0.2 0 0.1 0 0.2c-0.9 12.2-4.5 28.2-8.2 42.1h16.1c3.5-13.5 6.8-28.5 7.7-40.7 2-13.5-6.3-38.8-11.8-53.7q17.6 0.7 35.1 1.8 17.5 1.2 35 2.8 17.5 1.5 34.9 3.6 17.4 2 34.8 4.5c79.4 11.5 175.1 59.1 176.1 59.6 1.8 0.9 4 1.1 5.9 0.4 2-0.6 3.6-2.1 4.6-3.9 0.9-1.9 1-4 0.4-6-0.7-1.9-2.1-3.6-3.9-4.5-4-2-99-49.2-180.9-61q-19-2.8-38.2-5-19.1-2.2-38.3-3.9-19.2-1.6-38.4-2.7-19.3-1.1-38.5-1.6c-1.3 0-2.6 0.3-3.7 0.9-1.2 0.6-2.2 1.5-2.9 2.5-0.7 1.1-1.2 2.3-1.3 3.6-0.1 1.3 0.1 2.6 0.6 3.8 6.7 16.3 16.8 46 15 56.7z"/>
	<path id="Layer" class="s4" d="m330.2 550.6c1.3 14.9-5.4 32.6-9.3 41.2h14.5c4.3-10.7 9.5-27.3 8.1-42.4q-0.7-7.6-2.3-15-1.6-7.4-4.1-14.6-2.5-7.2-5.9-14-3.4-6.8-7.6-13.1c-1-1.5-2.6-2.4-4.3-2.7-1.8-0.3-3.6 0.1-5 1.1-1.5 1.1-2.4 2.6-2.7 4.4-0.3 1.7 0.1 3.5 1.2 5q3.6 5.6 6.5 11.6 3 6.1 5.2 12.4 2.2 6.3 3.6 12.9 1.5 6.5 2.1 13.2z"/>
</svg>