<svg version="1.2" xmlns="http://www.w3.org/2000/svg" viewBox="0 0 114 114" width="114" height="114">
	<title>Node</title>
	<defs>
		<clipPath clipPathUnits="userSpaceOnUse" id="cp1">
			<path d="m54.72 3.59l-42.13 24.32c-1.57 0.91-2.54 2.59-2.54 4.4v48.67c0 1.82 0.97 3.5 2.54 4.41l42.14 24.33c1.57 0.91 3.51 0.91 5.09 0l42.12-24.33c1.57-0.91 2.54-2.59 2.54-4.41v-48.67c0-1.81-0.97-3.49-2.55-4.4l-42.12-24.32c-0.79-0.45-1.67-0.68-2.55-0.68-0.88 0-1.76 0.23-2.55 0.68"/>
		</clipPath>
		<linearGradient id="g1" x2="1" gradientUnits="userSpaceOnUse" gradientTransform="matrix(-60.866,124.166,-118.702,-58.188,87.664,-5.41)">
			<stop offset=".3" stop-color="#3e863d"/>
			<stop offset=".5" stop-color="#55934f"/>
			<stop offset=".8" stop-color="#5aad45"/>
		</linearGradient>
		<clipPath clipPathUnits="userSpaceOnUse" id="cp2">
			<path d="m11.09 84.07q0.61 0.8 1.5 1.32l36.14 20.87 6.02 3.46c0.9 0.52 1.93 0.74 2.94 0.67q0.5-0.05 1-0.19l44.43-81.36q-0.51-0.55-1.18-0.94l-27.59-15.93-14.58-8.39q-0.63-0.35-1.32-0.53z"/>
		</clipPath>
		<linearGradient id="g2" x2="1" gradientUnits="userSpaceOnUse" gradientTransform="matrix(110.864,-81.916,83.836,113.463,2.179,98.365)">
			<stop offset=".57" stop-color="#3e863d"/>
			<stop offset=".72" stop-color="#619857"/>
			<stop offset="1" stop-color="#76ac64"/>
		</linearGradient>
		<clipPath clipPathUnits="userSpaceOnUse" id="cp3">
			<path d="m56.76 2.94q-1.07 0.1-2.03 0.65l-42.01 24.25 45.3 82.51q0.95-0.14 1.81-0.63l42.13-24.33c1.3-0.76 2.19-2.03 2.46-3.48l-46.18-78.89q-0.51-0.1-1.04-0.1-0.2 0-0.41 0.02"/>
		</clipPath>
		<linearGradient id="g3" x2="1" gradientUnits="userSpaceOnUse" gradientTransform="matrix(91.669,0,0,107.414,12.745,56.636)">
			<stop offset=".16" stop-color="#6bbf47"/>
			<stop offset=".38" stop-color="#79b461"/>
			<stop offset=".47" stop-color="#75ac64"/>
			<stop offset=".7" stop-color="#659e5a"/>
			<stop offset=".9" stop-color="#3e863d"/>
		</linearGradient>
	</defs>
	<style>
		.s0 { fill: #ffffff } 
		.s1 { fill: url(#g1) } 
		.s2 { fill: url(#g2) } 
		.s3 { fill: url(#g3) } 
	</style>
	<path id="Layer 1" fill-rule="evenodd" class="s0" d="m114 0v114h-114v-114z"/>
	<g id="Clip-Path" clip-path="url(#cp1)">
		<g>
			<path class="s1" d="m147.1 23.8l-118.8-58.2-60.8 124.2 118.7 58.2z"/>
		</g>
	</g>
	<g id="Clip-Path" clip-path="url(#cp2)">
		<g>
			<path class="s2" d="m-40.2 41l83.8 113.4 110.8-81.9-83.8-113.4z"/>
		</g>
	</g>
	<g id="Clip-Path" clip-path="url(#cp3)">
		<g>
			<path class="s3" d="m12.7 2.9v107.4h91.7v-107.4z"/>
		</g>
	</g>
</svg>